<svg xml:space="preserve" style="enable-background:new 0 0 2426.5 420.7;" viewBox="0 0 2426.5 420.7" y="0px" x="0px" xmlns:xlink="http://www.w3.org/1999/xlink" xmlns="http://www.w3.org/2000/svg" id="Layer_1" version="1.1">
<style type="text/css">
	.st0{fill-rule:evenodd;clip-rule:evenodd;}
</style>
<g>
	<path d="M2168.8,222.8c53.2,0,100.3,23.3,100.3,93.7c0,58.2-58.7,94.2-92.2,94.2c-62.8,0-100.2-46.1-100.2-94.2
		C2076.7,260.2,2115.7,222.8,2168.8,222.8z M2164.8,231.9c32.4,0,61.8,37.4,66.3,83.5s-17.7,83.5-50.1,83.5
		c-31.9,0-61.3-37.5-65.8-83.5C2110.6,269.3,2132.9,231.9,2164.8,231.9z M561,407.5V402c18.7,0,34.4-2.5,34.4-15.2V259.7
		c0-3.5,0-8.1-5.6-8.1l-32.4,8.1v-4.6l71.9-28.4h3v50.1c19.2-20.8,40-48.1,54.7-48.1c22.3,0,25.8,23.8,15.7,33.9
		c-12.2,11.1-24.3,5.6-31.9-3c-4.6-4-13.2-0.5-19.7,5.6c-9.6,11.6-16.7,19.7-18.7,33.9v87.1c0,15.7,14.2,15.7,40,15.7v5.6L561,407.5
		L561,407.5z M2279.2,407.5V402c19.2,0,34.9-2.5,34.9-15.2V259.7c0-3.5,0-8.1-6.1-8.1l-31.9,8.1v-4.6l71.4-28.4h3v50.1
		c19.2-20.8,40.5-48.1,54.7-48.1c22.8,0,25.8,23.8,15.7,33.9c-11.6,11.1-24.3,5.6-31.9-3c-4-4-13.2-0.5-19.7,5.6
		c-9.6,11.6-16.2,19.7-18.7,33.9v87.1c0,15.7,14.2,15.7,40.5,15.7v5.6L2279.2,407.5L2279.2,407.5L2279.2,407.5z M42,352.4
		C8.1,303.2-0.5,259.7,0,200c2.5-23.3,6.6-51.6,17.2-75.9c18.2-41,46.1-79,89.6-99.2C144.8,5.6,211.1-2,259.7,12.2
		c10.6,3,22.8,8.6,33.9,8.6c3.5-4,6.1-10.6,7.6-16.7h7.6l30.9,130.1l-3-0.5C321,93.1,306.3,61.3,268.8,31.9
		c-14.7-9.1-28.9-16.7-48.1-19.2C172.6,7.6,121,44,95.7,82c-26.8,48.1-33.4,113.4-24.8,167.6c16.2,70.9,51.1,142.8,136.2,145.3
		c43,0,104.3-24.8,140.7-72.4c1,1.5,2,2,2.5,3c-10.6,25.3-53.2,61.8-65.8,67.8c-29.9,20.2-62.3,27.8-109.9,27.3
		C121,420.7,76,394.9,42,352.4L42,352.4z M867.3,410.1c-9.6,0-36.5-6.6-45.1-13.7l-6.1-58.2l5.1-0.5c2,17.2,7.1,27.4,13.7,43
		c15.2,28.4,79,34.4,79-15.7c0-38.5-80-34.9-80-90.6c0-31.9,25.8-51.6,51.1-51.1c18.2-0.5,28.4,1.5,42.5,5.1c4,3.5,4,1,3.5-3h5.6
		l5.6,57.7h-4.6c-2.1-12.6-6.2-24.7-12.2-35.9c-5.1-8.6-11.1-14.7-22.8-17.7c-32.4-3-47.1,19.2-40,38.5
		c6.1,15.7,24.3,24.3,38.5,33.4c27.3,17.2,48.6,29.4,45.6,65.3C942.7,405.5,898.6,410.1,867.3,410.1L867.3,410.1z M1015.6,410.1
		c-18.2,0-27.8-16.7-27.8-43V262.3c-0.5-8.1,1.5-20.3-6.6-24.3h-24.8v-3l31.4-7.1v-30.9l33.9-29.4v60.3c16.7-0.5,34.9,0,52.6,0v10.1
		h-52.6c0.5,44,0,81.5,0,127.1c-0.5,26.8,1.5,30.4,15.2,30.9c15.7,0.5,23.8-2.5,37.5-12.2v2.5
		C1060.6,400.5,1042.9,410.1,1015.6,410.1L1015.6,410.1z M327.1,407.5v-5c10.6,0,26.3-0.5,33.4-4c8.1-3,15.7-10.6,15.7-31.9V54.2
		c0-6.1,2.5-25.3-7.6-28.9c-7.1-1.5-12.2,0-18.2,2l-8.1,2.5v-4.6L406.6,0h4v258.2c0,3,0,5.1,2.5,3c5.6-5.1,9.6-8.6,15.2-13.7
		c20.8-17.7,38.5-28.4,71.9-15.7c15.2,6.6,20.3,21.8,20.3,34.9v108.8c0,26.3,11.6,26.3,30.9,26.3c0,1.5-0.5,4,0,5.6
		c-31.4,0-62.8-0.5-94.7,0V402c18.2,0,30.9,0,30.9-27.4V268.3c0-14.7-11.1-22.8-28.4-24.3c-18.7,0.5-39,16.7-48.6,29.4v93.7
		c0,36.5,13.7,34.4,29.9,34.4v6.1L327.1,407.5L327.1,407.5z M1311.7,410.1c-11.1,0-24.8-11.6-25.3-26.3
		c-13.7,8.6-35.4,26.3-63.8,26.3c-15.7,0-26.3-5-35.4-17.7c-8.6-17.2-5.1-37,7.6-46.1c29.9-21.8,61.8-33.4,91.6-46.1v-46.6
		c0.5-11.6-4.6-21.3-14.7-24.8c-19.2-5.1-35.9,7.6-37,25.3c1,5.6,1.5,10.1,1,15.2c-4.6,24.8-39.5,21.3-34.9-6.1
		c12.7-40,60.3-47.6,95.2-34.4c18.7,10.6,23.8,21.3,26.8,43.5v111.4c-0.5,22.3,23.8,21.8,33.4,5.6h2
		C1347.2,413.1,1322.9,410.1,1311.7,410.1L1311.7,410.1z M1227.2,363.5c0-26.3,25.8-44,59.2-53.2v44.6c0,8.1,0,15.2-3,20.2
		C1263.7,400,1230.2,398.9,1227.2,363.5L1227.2,363.5z M701.2,407.5c-0.5-2-0.5-4-0.5-5.6c29.4,0,41.5-3,41.5-28.9V264.8
		c0-18.2-7.6-14.2-25.8-12.7v-3.5l54.2-21.8h5.6v145.3c0,25.8,9.1,29.9,30.4,29.9v5.6L701.2,407.5L701.2,407.5L701.2,407.5z
		 M1068.2,407.5c-0.5-2,0-4,0-5.6c29.4,0,41.5-3,41.5-28.9V264.8c0-18.2-8.1-14.2-26.3-12.7v-3.5l54.7-21.8h5.1v145.3
		c0,25.8,9.6,29.9,30.9,29.9v5.6L1068.2,407.5L1068.2,407.5L1068.2,407.5z M1955.2,407.5c-0.5-2,0-4,0-5.6c29.4,0,41-3,41-28.9
		V264.8c0-18.2-7.6-14.2-25.8-12.7v-3.5l54.7-21.8h5.1v145.3c0,25.8,9.6,29.9,30.4,29.9v5.6L1955.2,407.5L1955.2,407.5L1955.2,407.5
		z M1577.5,407.5v-10.1c30.4,0,49.6,0,49.6-35.9V66.8c0-28.4-27.8-28.4-72.9-28.4V28.4h121.5c87.6,0,105.8,0,160,10.1
		c90.6,25.8,122,87.1,122,184.8c0,138.2-86.1,186.8-202.5,184.3L1577.5,407.5L1577.5,407.5z M412.1,147.8v-4h2v4H412.1z
		 M759.4,134.2c10.6,0,19.7,8.6,19.7,19.7c0,11.1-9.1,20.3-19.7,20.3c-11.2,0-20.2-9.1-20.3-20.3
		C739.2,142.8,748.3,134.2,759.4,134.2z M1126.5,134.2c11.1,0,20.2,8.6,20.2,19.7c0,11.1-9.1,20.3-20.2,20.3
		c-11.2,0-20.2-9.1-20.3-20.3C1106.2,142.8,1115.3,134.2,1126.5,134.2z M2013.4,134.2c11.1,0,19.7,8.6,19.7,19.7
		c0,11.1-8.6,20.3-19.7,20.3c-11.1,0-20.2-9.1-20.2-20.3C1993.2,142.8,2002.3,134.2,2013.4,134.2z M1475.8,407.5V402
		c16.2,0,25.3,0,25.3-16.7l0.5-111.4c-4.6-54.2-57.2-11.1-77.5,8.6v-13.7c16.7-15.7,39.5-42,62.8-42c32.4,0.5,48.1,13.7,48.6,47.6
		v111.9c0,15.7,7.1,15.7,33.4,15.7v5.6H1475.8L1475.8,407.5z M1364.9,407.5V402c16.2,0,25.3,0,25.3-16.7V259.7c0-3.5,0-9.1-8.6-8.1
		l-20.2,3.5v-4.6l59.7-23.8h3v159.5c0,15.7,7.6,15.7,33.4,15.7v5.6H1364.9z M1684.9,72.4c0-33.9,17.7-33.9,33.4-33.9
		c131.1,0,175.2,28.9,175.2,179.7c0,148.3-45.6,179.2-175.2,179.2c-15.7,0-33.4,0-33.4-33.4V72.4z" class="st0"></path>
</g>
</svg>
