<svg xml:space="preserve" style="enable-background:new 0 0 213 70.1;" viewBox="0 0 213 70.1" y="0px" x="0px" xmlns:xlink="http://www.w3.org/1999/xlink" xmlns="http://www.w3.org/2000/svg" id="Layer_1" version="1.1">
<g>
	<path d="M209.6,4.6C206.7,2,203,1,199.1,0.9c-7.8-0.2-15.6-0.2-23.4-0.2c-1,0-1.4,0.2-1.4,1.3c0.1,7.5,0,15,0,22.5
		c0,0.4,0.1,0.7,0.1,1.1c2.5,0,5,0,7.5,0c0-6.3,0-12.5,0-18.7c0.2,0,0.3-0.1,0.4-0.1c5.2,0,10.4-0.1,15.6-0.1c2.9,0,5,1.3,6.2,3.9
		c1,2.3,0.7,4.7-0.3,6.9c-1.8,4.1-5.3,6.2-9.6,7.4c-6.4,1.7-12.9,3.6-19.4,5.1c-21.9,5.2-43.9,10.3-65.9,15.3
		c-1.2,0.3-2.7,0.3-3.9,0c-26.8-5.9-53.6-11.7-80.2-18.6c-5.3-1.4-10.2-3.5-14-7.3c-2.1-2-2.9-4.4-2.1-7.2c0.9-3.4,4.2-5.6,8.6-5.9
		c5-0.4,9.2,1.5,12.9,4.3c0.7,0.5,1.3,1,2.2,1.7c0-2-0.1-3.8,0-5.5c0.2-1.8-0.6-2.9-2.2-3.7C23.4-0.4,16.4-0.9,9.1,1.5
		C5.5,2.6,2.9,4.8,1.3,8c-2.5,5-1.4,11.7,2.8,14.8C7,25,10.3,27,13.6,28.6c6.4,3.1,13.4,4.7,20.3,6.3c19.7,4.4,39.3,8.7,59,13.1
		c0.6,0.1,1.2,0.3,1.8,0.5c0,0.1,0,0.2,0,0.2c-26.3,5.9-52.5,11.7-78.8,17.6c0,0.1,0,0.2,0,0.3c0.3,0,0.6,0.1,0.8,0.1
		c7.7,0,15.3,0,23,0c0.5,0,1-0.1,1.5-0.2c21.2-4.9,42.5-9.9,63.8-14.8c1.4-0.3,3-0.3,4.4,0c18.9,4.3,37.7,8.7,56.6,13
		c3.2,0.7,6.3,1.7,9.5,1.8c6.8,0.3,13.7,0.1,20.5,0.1c0.3,0,0.6-0.1,0.9-0.1c0-0.1,0-0.2,0-0.3c-25.9-5.9-51.8-11.8-77.7-17.7
		c1.2-0.5,2.4-0.8,3.6-1.1c21-4.8,42-9.6,62.9-14.5c5.6-1.3,11.1-2.6,16.2-5c6.1-2.9,10.1-7.2,10.9-13.7
		C213.4,10.6,212.6,7.2,209.6,4.6z"></path>
	<path d="M162.7,20.5c-8.2,0-16.3,0-24.4,0c0-1.6,0-3.1,0-4.7c7.8,0,15.6,0,23.4,0c0-2,0-3.9,0-5.8c-7.8,0-15.6,0-23.4,0
		c0-1.4,0-2.6,0-4.1c8.1,0,16.1,0,24,0c0-1.7,0-3.3,0-5c-10.6,0-21.1,0-31.6,0c0,8.3,0,16.5,0,24.8c10.7,0,21.4,0,32,0
		C162.7,23.9,162.7,22.3,162.7,20.5z"></path>
	<path d="M119.2,20.5c-8.2,0-16.3,0-24.4,0c0-1.6,0-3,0-4.7c7.8,0,15.5,0,23.3,0c0-2,0-3.9,0-5.9c-7.8,0-15.5,0-23.2,0
		c0-1.4,0-2.7,0-4.1c8,0,16,0,24,0c0-1.7,0-3.4,0-5c-10.6,0-21.1,0-31.6,0c0,8.3,0,16.5,0,24.7c10.7,0,21.4,0,32,0
		C119.2,23.9,119.2,22.3,119.2,20.5z"></path>
	<path d="M50.5,17.6c3.3,0,6.5-0.1,9.6,0c0.8,0,1.8,0.4,2.4,0.9c1.8,1.4,3.6,2.9,5.1,4.5c2,2.1,4.2,3.2,7.3,2.8c1.1-0.2,2.2,0,3.3,0
		c0.3,0,0.6-0.1,0.9-0.1c0.1-0.1,0.2-0.2,0.3-0.4c-3.4-3-6.8-6.1-10.3-9.1c1.8-1.4,3.4-2.5,4.8-3.8c1.7-1.5,2.3-3.4,1.6-5.6
		c-0.9-3-4.9-5.9-8.3-5.9c-7.8-0.1-15.6-0.1-23.4-0.1c-0.3,0-0.6,0.1-0.9,0.1c0,8.3,0,16.5,0,24.7c2.6,0,5,0,7.6,0
		C50.5,22.9,50.5,20.3,50.5,17.6z M50.5,6.7c0.4,0,0.8-0.1,1.1-0.1c4.2,0.1,8.4,0.1,12.6,0.2c0.4,0,0.8,0.1,1.2,0.1
		c1.3,0.3,2.1,1.2,2,2.3c-0.1,1.1-1,2-2.3,2c-4.7,0.1-9.5,0.1-14.2,0.1c-0.1,0-0.2-0.1-0.4-0.1C50.5,9.6,50.5,8.2,50.5,6.7z"></path>
	<path d="M118.3,60.4c-1.5-0.1-2.5,0.5-3,1.8c-0.4,1-0.6,2-0.9,3.2c0.3,0.9,0.5,1.9,0.9,2.8c0.6,1.2,1.9,1.9,3.3,1.8
		c1.5-0.1,1.9-1.2,2.3-2.3c0.6-1.7,0.5-3.5,0-5.2C120.5,61.1,119.6,60.5,118.3,60.4z M119.4,67.7c-0.2,0.5-0.9,1-1.4,1.1
		c-0.4,0-1.2-0.5-1.4-0.9c-0.9-1.8-0.9-3.6,0-5.4c0.6-1.2,2-1.2,2.7,0c0.4,0.8,0.6,1.8,0.9,2.7C119.9,66.1,119.8,67,119.4,67.7z"></path>
	<path d="M110.8,63.7c-0.7-0.1-1.5,0-2.2,0c0.7-1.6,2.6-2,4.1-2.9c-0.1-0.1-0.2-0.2-0.2-0.3c-0.2,0-0.4-0.1-0.6-0.1
		c-5.1,0.3-6.2,5.5-4.4,8.2c0.8,1.2,2.4,1.7,3.9,1.2c1.4-0.5,2.3-1.9,2.1-3.5C113.4,64.8,112.4,63.8,110.8,63.7z M110.2,68.9
		c-1.2,0-2-1-2-2.4c0-1,0.9-1.8,2.1-1.8c1.1,0,1.9,0.9,1.9,2.2C112.2,68.2,111.4,69,110.2,68.9z"></path>
	<path d="M99.2,60.9c1.6,1.1,3.2,0.6,4.9,0.8c-1.4,2.8-2.8,5.5-4.1,8.1c0.1,0.1,0.3,0.2,0.4,0.3c0.4-0.4,1.1-0.7,1.3-1.1
		c1.3-2.3,2.4-4.7,3.7-7c0.2-0.5,0.4-0.9,0.8-1.6C103.7,60.6,101.5,60.2,99.2,60.9z"></path>
	<path d="M92.4,61.7c0,0.1,0,0.3,0,0.4c0.6,0,1.1,0.1,1.8,0.1c0,2,0,4.1,0,6.1c0,0.5,0.3,1,0.4,1.5c0.2,0,0.4,0,0.6,0
		c0.3-3,0.5-6.1-0.2-9.4C94,60.9,93.2,61.3,92.4,61.7z"></path>
</g>
</svg>
