<svg xml:space="preserve" style="enable-background:new 0 0 450.1 167.7;" viewBox="0 0 450.1 167.7" y="0px" x="0px" xmlns:xlink="http://www.w3.org/1999/xlink" xmlns="http://www.w3.org/2000/svg" id="Layer_1" version="1.1">
<path d="M39.1,0h9.7v1.2c-3.1,0.1-4.6,1.9-4.6,5.4c0,0.3,0,0.6,0,0.9l2.1,25.2c0.2,2.7,0.7,4.5,1.4,5.4c0.7,0.9,1.9,1.4,3.7,1.6v1.2
	H36.6v-1.2c1.6-0.3,2.7-0.8,3.3-1.5c0.6-0.8,1-2,1-3.5c0-0.3,0-0.7,0-1.1L38.7,7.1l-14,33.8h-1.1L9.7,7.2L7.4,32.3
	c0,0.4,0,0.8,0,1.1c0,3.5,1.8,5.6,5.3,6.3v1.2H0v-1.2c1.7-0.2,2.9-0.8,3.7-1.8s1.3-2.9,1.6-5.7L7.7,4C6.3,2.5,4.5,1.5,2.4,1.2V0
	h10.4l13.1,32.2L39.1,0z M62.7,41.7c-2,0-3.7-0.7-5.1-2s-2.1-2.9-2.1-4.8c0-1.8,0.6-3.2,1.8-4.4c1.2-1.2,3.7-2.3,7.4-3.3
	c2.3-0.7,3.9-1.2,4.7-1.7v-1.9c0-1.8-0.5-3.3-1.5-4.4c-1-1.1-2.4-1.7-4.1-1.7c-1.6,0-2.9,0.5-4.2,1.5c-1.2,1-2.1,2.3-2.5,4l-1.3-0.3
	c0.5-2.3,1.6-4.2,3.3-5.7c1.7-1.4,3.7-2.1,6-2.1c2.7,0,4.9,0.8,6.6,2.5s2.5,3.9,2.5,6.8v10.9c0,1.5,0.1,2.6,0.3,3.1
	c0.2,0.5,0.6,0.8,1.1,0.8c0.4,0,0.7-0.2,0.9-0.5c0.2-0.3,0.5-1,0.8-2h1.2c-0.1,1.6-0.6,2.8-1.5,3.8c-0.9,0.9-2,1.4-3.4,1.4
	c-2.1,0-3.5-1.2-4.3-3.6c-1.3,1.4-2.4,2.3-3.3,2.8C65.1,41.5,64,41.7,62.7,41.7z M69.5,35.8v-8.6c-0.7,0.3-1.8,0.7-3.1,1.2
	c-2.5,0.9-4.2,1.7-4.9,2.6s-1.1,2-1.1,3.4c0,1.3,0.4,2.3,1.1,3.3c0.8,0.9,1.7,1.4,2.7,1.4c1,0,2-0.3,3-0.9
	C68.3,37.5,69,36.7,69.5,35.8z M88.8,14.9h1.2v21.3c0,1.4,0.3,2.3,0.9,2.8c0.6,0.5,1.7,0.7,3.3,0.7v1.2H80.4v-1.2
	c2,0,3.3-0.2,3.9-0.7c0.6-0.5,0.9-1.4,0.9-2.8V20.7c0-1.5-0.3-2.6-0.8-3c-0.5-0.5-1.9-0.7-4-0.7v-1.2L88.8,14.9z M87.7,1.8
	c0.9,0,1.6,0.3,2.2,0.9c0.6,0.6,0.9,1.3,0.9,2.2c0,0.9-0.3,1.6-0.9,2.2s-1.3,0.9-2.2,0.9c-0.9,0-1.6-0.3-2.2-0.9s-0.9-1.4-0.9-2.2
	c0-0.9,0.3-1.6,0.9-2.2C86.1,2.1,86.8,1.8,87.7,1.8z M114.5,14.9v7.8h-1.4c-0.2-2-0.9-3.5-2.1-4.7s-2.6-1.7-4.2-1.7
	c-1.3,0-2.3,0.3-3,0.9s-1.2,1.5-1.2,2.5c0,1,0.4,1.9,1.1,2.7c0.7,0.8,2.3,1.7,4.6,2.8c3.1,1.4,5.1,2.7,6.1,4c1,1.3,1.5,2.8,1.5,4.6
	c0,2.1-0.8,3.9-2.4,5.5c-1.6,1.5-3.5,2.3-5.6,2.3c-1.1,0-2.6-0.4-4.4-1.2c-1-0.4-1.7-0.7-2-0.7c-0.4,0-0.8,0.2-1.1,0.5
	c-0.3,0.3-0.5,0.7-0.5,1.2h-1.2v-8.6h1.2c0.4,2.3,1.4,4.1,2.9,5.4c1.5,1.3,3.2,2,5.2,2c1.3,0,2.3-0.4,3.2-1.3
	c0.8-0.8,1.3-1.9,1.3-3.1c0-1.2-0.4-2.2-1.2-3.1c-0.8-0.9-2.5-1.9-5.1-3c-2.9-1.3-4.9-2.5-5.8-3.6c-0.9-1.1-1.4-2.5-1.4-4.1
	c0-2,0.8-3.7,2.3-5.1c1.5-1.4,3.3-2.1,5.4-2.1c1,0,2,0.2,3.2,0.7c0.8,0.3,1.5,0.5,2,0.5c0.7,0,1.2-0.4,1.5-1.2H114.5z M148.4,28.4
	c0,3.8-1.3,7-4,9.5c-2.6,2.5-5.9,3.8-9.9,3.8c-4,0-7.3-1.3-9.9-3.8c-2.6-2.5-4-5.7-4-9.5c0-3.9,1.3-7.1,3.9-9.6
	c2.6-2.5,5.9-3.8,9.9-3.8s7.3,1.3,9.9,3.8C147,21.3,148.4,24.5,148.4,28.4z M143.1,28.4c0-3.6-0.8-6.5-2.3-8.7
	c-1.5-2.2-3.6-3.3-6.3-3.3c-2.7,0-4.7,1.1-6.3,3.2c-1.5,2.2-2.3,5.1-2.3,8.8c0,3.6,0.8,6.5,2.3,8.7c1.5,2.2,3.6,3.2,6.3,3.2
	s4.8-1.1,6.3-3.3C142.3,34.9,143.1,32,143.1,28.4z M160.7,14.9V20c3-3.4,6-5.1,9.1-5.1c2.4,0,4.5,0.8,6.1,2.5
	c1.6,1.7,2.4,3.9,2.4,6.6v11.4c0,1.7,0.3,2.9,0.9,3.5c0.6,0.6,1.7,0.8,3.4,0.8v1.2h-13.5v-1.2c1.7,0,2.8-0.2,3.4-0.6
	c0.6-0.4,0.9-1.3,0.9-2.5V23.4c0-1.8-0.5-3.2-1.6-4.2s-2.4-1.6-4.1-1.6c-2.4,0-4.8,1.7-7.2,5v12.4c0,2.1,0.3,3.4,0.8,4
	c0.5,0.6,1.7,0.9,3.4,0.9v1.2h-13.3v-1.2c1.9,0,3.1-0.3,3.6-0.9c0.4-0.6,0.7-1.9,0.7-3.9V20.6c0-1.5-0.3-2.5-0.8-3
	c-0.5-0.5-1.7-0.7-3.4-0.7v-1.2l7.9-0.8H160.7z M21.6,84.1H10.8v12.1c0,2.4,0.3,4.1,1,5.1c0.7,0.9,1.9,1.4,3.7,1.4v1.2H0.7v-1.2
	c1.8,0,3-0.5,3.6-1.4s1-2.6,1-5.1V70.7c0-2.5-0.3-4.2-1-5.1s-1.9-1.4-3.7-1.4V63h28.1v7.3h-0.9c-0.4-2.2-1-3.6-1.7-4.3s-2.4-1-4.9-1
	H10.8v17.1h10.7c1.4,0,2.5-0.4,3.2-1.1c0.7-0.7,1.2-2,1.4-3.8h1.1v11.5H26C25.9,85.7,24.4,84.1,21.6,84.1z M41.5,77.9v5.5
	c2.3-2,4.1-3.4,5.4-4.3c1.3-0.8,2.4-1.2,3.2-1.2c1.6,0,3.2,0.7,4.6,2l-1.9,4.5c-2.7-1.5-4.7-2.2-6-2.2c-1.4,0-3.2,1-5.4,3.1v13.9
	c0,1.4,0.3,2.3,0.9,2.8c0.6,0.5,1.7,0.7,3.3,0.7v1.2H32.4v-1.2c1.8,0,2.9-0.3,3.5-0.8c0.5-0.6,0.8-1.9,0.8-4V84.1
	c0-1.8-0.3-2.9-0.9-3.4c-0.6-0.5-2-0.8-4.3-0.8v-1.2l8.9-0.8H41.5z M64.9,104.7c-2,0-3.7-0.7-5.1-2c-1.4-1.3-2.1-2.9-2.1-4.8
	c0-1.8,0.6-3.2,1.8-4.4c1.2-1.2,3.7-2.3,7.5-3.3c2.3-0.7,3.9-1.2,4.7-1.7v-1.9c0-1.8-0.5-3.3-1.5-4.4c-1-1.1-2.4-1.7-4.1-1.7
	c-1.6,0-2.9,0.5-4.2,1.5c-1.2,1-2.1,2.3-2.5,4l-1.3-0.3c0.5-2.3,1.6-4.2,3.3-5.7c1.7-1.4,3.7-2.1,6-2.1c2.7,0,4.9,0.8,6.6,2.5
	c1.7,1.6,2.5,3.9,2.5,6.8v10.9c0,1.5,0.1,2.6,0.3,3.1c0.2,0.5,0.6,0.8,1.1,0.8c0.4,0,0.7-0.2,0.9-0.5c0.2-0.3,0.5-1,0.8-2h1.2
	c-0.1,1.6-0.6,2.8-1.5,3.8c-0.9,0.9-2,1.4-3.4,1.4c-2.1,0-3.5-1.2-4.3-3.6c-1.3,1.4-2.4,2.3-3.3,2.8
	C67.4,104.5,66.2,104.7,64.9,104.7z M71.7,98.8v-8.6c-0.7,0.3-1.8,0.7-3.1,1.2c-2.5,0.9-4.2,1.7-4.9,2.6c-0.7,0.8-1.1,2-1.1,3.4
	c0,1.3,0.4,2.3,1.1,3.3c0.8,0.9,1.7,1.4,2.7,1.4c1,0,2-0.3,3-0.9S71.3,99.7,71.7,98.8z M91.5,77.9V83c3-3.4,6-5.1,9.1-5.1
	c2.4,0,4.5,0.8,6.1,2.5c1.6,1.7,2.4,3.9,2.4,6.6v11.4c0,1.7,0.3,2.9,0.9,3.5c0.6,0.6,1.7,0.8,3.4,0.8v1.2H99.9v-1.2
	c1.7,0,2.8-0.2,3.4-0.6c0.6-0.4,0.9-1.3,0.9-2.5V86.4c0-1.8-0.5-3.2-1.6-4.2c-1.1-1-2.4-1.6-4.1-1.6c-2.4,0-4.8,1.7-7.2,5v12.4
	c0,2.1,0.3,3.4,0.8,4c0.5,0.6,1.7,0.9,3.4,0.9v1.2H82.3v-1.2c1.9,0,3.1-0.3,3.6-0.9c0.4-0.6,0.7-1.9,0.7-3.9V83.6
	c0-1.5-0.3-2.5-0.8-3s-1.7-0.7-3.4-0.7v-1.2l7.9-0.8H91.5z M140,77.9v8.9h-1.2c-0.5-2.3-1.6-4.2-3.1-5.5c-1.5-1.3-3.3-2-5.4-2
	c-2.5,0-4.6,1-6.1,2.9c-1.6,2-2.4,4.5-2.4,7.6c0,3.4,0.9,6.4,2.8,8.9c1.9,2.5,4.1,3.8,6.7,3.8c1.7,0,3.4-0.5,5.1-1.4
	c1.7-0.9,3.1-2.2,4.3-3.9v1.8c-2.7,3.7-6.5,5.6-11.2,5.6c-3.7,0-6.8-1.2-9.2-3.6c-2.4-2.4-3.5-5.5-3.5-9.2c0-3.9,1.3-7.2,3.8-9.9
	c2.5-2.7,5.6-4.1,9.2-4.1c1.6,0,3.4,0.3,5.4,1c0.9,0.3,1.5,0.4,1.8,0.4c0.7,0,1.3-0.5,1.7-1.4H140z M151.3,77.9h1.2v21.3
	c0,1.4,0.3,2.3,0.9,2.8c0.6,0.5,1.7,0.7,3.3,0.7v1.2h-13.9v-1.2c2,0,3.3-0.2,3.9-0.7c0.6-0.5,0.9-1.4,0.9-2.8V83.7
	c0-1.5-0.3-2.6-0.8-3c-0.5-0.5-1.9-0.7-4-0.7v-1.2L151.3,77.9z M150.2,64.8c0.9,0,1.6,0.3,2.2,0.9c0.6,0.6,0.9,1.3,0.9,2.2
	c0,0.9-0.3,1.6-0.9,2.2s-1.3,0.9-2.2,0.9c-0.9,0-1.6-0.3-2.2-0.9s-0.9-1.4-0.9-2.2c0-0.9,0.3-1.6,0.9-2.2
	C148.5,65.1,149.3,64.8,150.2,64.8z M177,77.9v7.8h-1.4c-0.2-2-0.9-3.5-2.1-4.7s-2.6-1.7-4.2-1.7c-1.3,0-2.3,0.3-3,0.9
	s-1.2,1.5-1.2,2.5c0,1,0.4,1.9,1.1,2.7c0.7,0.8,2.3,1.7,4.6,2.8c3.1,1.4,5.1,2.7,6.1,4c1,1.3,1.5,2.8,1.5,4.6c0,2.1-0.8,3.9-2.4,5.5
	s-3.5,2.3-5.6,2.3c-1.1,0-2.6-0.4-4.4-1.2c-1-0.4-1.7-0.7-2-0.7c-0.4,0-0.8,0.2-1.1,0.5c-0.3,0.3-0.5,0.7-0.5,1.2H161v-8.6h1.2
	c0.4,2.3,1.4,4.1,2.9,5.4c1.5,1.3,3.2,2,5.2,2c1.3,0,2.3-0.4,3.2-1.3c0.8-0.8,1.3-1.9,1.3-3.1c0-1.2-0.4-2.2-1.2-3.1
	c-0.8-0.9-2.5-1.9-5.1-3c-2.9-1.3-4.9-2.5-5.8-3.6c-0.9-1.1-1.4-2.5-1.4-4c0-2,0.8-3.7,2.3-5.1c1.5-1.4,3.3-2.1,5.4-2.1
	c1,0,2,0.2,3.2,0.7c0.8,0.3,1.5,0.5,2,0.5c0.7,0,1.2-0.4,1.5-1.2H177z M199.5,103.9v-1.2c1.8,0,3-0.5,3.7-1.4c0.7-1,1-2.6,1-5V70.7
	c0-2.5-0.3-4.2-1-5.1s-1.9-1.4-3.7-1.4V63h14.7v1.2c-1.7,0-2.9,0.5-3.6,1.5s-1,2.7-1,5.1v12.4l13.4-13.1c1.4-1.4,2.1-2.6,2.1-3.4
	c0-1.2-0.9-2-2.6-2.3V63h15.5v1.2h-2c-1.2,0-2.6,0.4-4.2,1.2c-1.6,0.8-3.1,1.9-4.4,3.3l-12.7,12.6l16.9,17.1c1.7,1.7,3,2.9,3.9,3.4
	s2.2,0.8,3.8,0.9v1.2h-9.7l-19.9-20.1v12.4c0,2.4,0.3,4.1,1,5.1c0.6,1,1.8,1.5,3.6,1.5v1.2H199.5z M264.5,77.9h1.2v21.2
	c0,1.4,0.3,2.3,0.9,2.8s1.8,0.7,3.5,0.7v1.2l-9.2,0.5v-4.6h-0.1c-2.5,3.3-5.5,5-8.9,5c-2.4,0-4.4-0.8-5.9-2.4s-2.3-3.7-2.3-6.1v-13
	c0-1.3-0.3-2.2-1-2.7c-0.7-0.5-1.8-0.7-3.5-0.7v-1.2l8.1-0.8h1.2V96c0,1.8,0.5,3.2,1.6,4.2s2.4,1.5,4.2,1.5c2.4,0,4.7-1.4,6.7-4.2
	V83.9c0-1.7-0.3-2.8-0.8-3.3s-1.9-0.7-4.1-0.7v-1.2L264.5,77.9z M281.4,77.9v5.5c2.3-2,4.1-3.4,5.4-4.3c1.3-0.8,2.4-1.2,3.2-1.2
	c1.6,0,3.2,0.7,4.6,2l-1.9,4.5c-2.7-1.5-4.7-2.2-6-2.2c-1.4,0-3.2,1-5.4,3.1v13.9c0,1.4,0.3,2.3,0.9,2.8c0.6,0.5,1.7,0.7,3.3,0.7
	v1.2h-13.4v-1.2c1.8,0,2.9-0.3,3.5-0.8c0.5-0.6,0.8-1.9,0.8-4V84.1c0-1.8-0.3-2.9-0.9-3.4c-0.6-0.5-2-0.8-4.3-0.8v-1.2l8.9-0.8
	H281.4z M316.8,83l-6.5,6l10.5,10.5c1.2,1.2,2.2,2,3,2.5s1.9,0.7,3.1,0.8v1.2h-8.3l-13.2-12.6c0,6.7,0.3,10.2,0.8,10.7
	s1.7,0.7,3.4,0.7v1.2h-13.6v-1.2c2,0,3.2-0.4,3.7-0.9s0.8-1.9,0.8-3.9V64.6c0-1.5-0.3-2.4-0.8-2.8c-0.5-0.4-1.8-0.6-3.7-0.6v-1.2
	l8.2-0.9h1.2v32l6.8-6.2c1.3-1.2,1.9-2.3,1.9-3.2c0-1.1-1-1.7-3.1-1.8v-1.2h13.8v1.2h-1.2C321.3,79.9,318.9,80.9,316.8,83z
	 M352.9,59.1h1.2v40c0,1.4,0.3,2.4,0.9,2.9c0.6,0.5,1.7,0.8,3.3,0.8v1.2h-14.7c-4.5,0-8.1-1.2-10.8-3.7c-2.6-2.5-4-5.6-4-9.4
	c0-3.6,1.2-6.6,3.5-9.1c2.3-2.5,5.1-3.8,8.4-3.8c2.6,0,5.5,1,8.5,3.1V65.5c0-1.7-0.2-2.8-0.7-3.5c-0.4-0.6-1.3-0.9-2.7-0.9h-1.4
	v-1.2L352.9,59.1z M349.3,98.9V83.7c-1-1.3-2.1-2.4-3.4-3.1c-1.3-0.8-2.6-1.1-3.9-1.1c-2.3,0-4.2,0.9-5.6,2.8
	c-1.4,1.9-2.1,4.4-2.1,7.4c0,3.9,1,7.1,2.9,9.5s4.7,3.6,8.1,3.6c1.4,0,2.4-0.3,3.1-0.9C349,101.3,349.3,100.3,349.3,98.9z
	 M369.4,77.9h1.2v30c0,8.7-4.4,13-13.2,13h-0.7v-1.2h0.2c3.2,0,5.4-0.9,6.8-2.6c1.4-1.7,2.1-4.6,2.1-8.6V83.1c0-1.3-0.3-2.2-1-2.6
	s-1.9-0.6-3.8-0.6v-1.2L369.4,77.9z M367.8,64.8c0.9,0,1.6,0.3,2.2,0.9c0.6,0.6,0.9,1.3,0.9,2.2c0,0.9-0.3,1.6-0.9,2.2
	c-0.6,0.6-1.3,0.9-2.2,0.9c-0.9,0-1.6-0.3-2.2-0.9s-0.9-1.4-0.9-2.2c0-0.9,0.3-1.6,0.9-2.2C366.2,65.1,366.9,64.8,367.8,64.8z
	 M385.3,77.9h1.2v21.3c0,1.4,0.3,2.3,0.9,2.8c0.6,0.5,1.7,0.7,3.3,0.7v1.2h-13.9v-1.2c2,0,3.3-0.2,3.9-0.7c0.6-0.5,0.9-1.4,0.9-2.8
	V83.7c0-1.5-0.3-2.6-0.8-3c-0.5-0.5-1.9-0.7-4-0.7v-1.2L385.3,77.9z M384.2,64.8c0.9,0,1.6,0.3,2.2,0.9c0.6,0.6,0.9,1.3,0.9,2.2
	c0,0.9-0.3,1.6-0.9,2.2c-0.6,0.6-1.3,0.9-2.2,0.9c-0.9,0-1.6-0.3-2.2-0.9s-0.9-1.4-0.9-2.2c0-0.9,0.3-1.6,0.9-2.2
	C382.5,65.1,383.3,64.8,384.2,64.8z M401.6,104.7c-2,0-3.7-0.7-5.1-2c-1.4-1.3-2.1-2.9-2.1-4.8c0-1.8,0.6-3.2,1.8-4.4
	c1.2-1.2,3.7-2.3,7.5-3.3c2.3-0.7,3.9-1.2,4.7-1.7v-1.9c0-1.8-0.5-3.3-1.5-4.4c-1-1.1-2.4-1.7-4.1-1.7c-1.6,0-2.9,0.5-4.2,1.5
	c-1.2,1-2.1,2.3-2.5,4l-1.3-0.3c0.5-2.3,1.6-4.2,3.3-5.7s3.7-2.1,6-2.1c2.7,0,4.9,0.8,6.6,2.5c1.7,1.6,2.5,3.9,2.5,6.8v10.9
	c0,1.5,0.1,2.6,0.3,3.1c0.2,0.5,0.6,0.8,1.1,0.8c0.4,0,0.7-0.2,0.9-0.5c0.2-0.3,0.5-1,0.8-2h1.2c-0.1,1.6-0.6,2.8-1.5,3.8
	c-0.9,0.9-2,1.4-3.4,1.4c-2.1,0-3.5-1.2-4.3-3.6c-1.3,1.4-2.4,2.3-3.3,2.8C404.1,104.5,402.9,104.7,401.6,104.7z M408.4,98.8v-8.6
	c-0.7,0.3-1.8,0.7-3.1,1.2c-2.5,0.9-4.2,1.7-4.9,2.6c-0.7,0.8-1.1,2-1.1,3.4c0,1.3,0.4,2.3,1.1,3.3c0.8,0.9,1.7,1.4,2.7,1.4
	c1,0,2-0.3,3-0.9S407.9,99.7,408.4,98.8z M428.1,77.9V83c3-3.4,6-5.1,9.1-5.1c2.4,0,4.5,0.8,6.1,2.5c1.6,1.7,2.4,3.9,2.4,6.6v11.4
	c0,1.7,0.3,2.9,0.9,3.5c0.6,0.6,1.7,0.8,3.4,0.8v1.2h-13.5v-1.2c1.7,0,2.8-0.2,3.4-0.6c0.6-0.4,0.9-1.3,0.9-2.5V86.4
	c0-1.8-0.5-3.2-1.6-4.2c-1.1-1-2.4-1.6-4.1-1.6c-2.4,0-4.8,1.7-7.2,5v12.4c0,2.1,0.3,3.4,0.8,4c0.5,0.6,1.7,0.9,3.4,0.9v1.2H419
	v-1.2c1.9,0,3.1-0.3,3.6-0.9c0.4-0.6,0.7-1.9,0.7-3.9V83.6c0-1.5-0.3-2.5-0.8-3s-1.7-0.7-3.4-0.7v-1.2l7.9-0.8H428.1z M0.9,126h14.9
	c4.9,0,8.8,1.1,11.6,3.2c2.8,2.2,4.3,5,4.3,8.4c0,3.4-1.2,6-3.7,7.8c-2.5,1.8-6.1,2.7-10.7,2.7c-1.8,0-3.9-0.1-6.3-0.4v11.5
	c0,2.5,0.3,4.2,1,5.1c0.7,0.9,1.9,1.4,3.6,1.4v1.2H0.9v-1.2c1.8,0,3-0.5,3.6-1.5c0.7-1,1-2.6,1-4.9v-25.7c0-2.4-0.3-4.1-1-5.1
	c-0.7-1-1.9-1.4-3.6-1.4V126z M16.1,127.6H11v18.4c1.4,0.5,3.1,0.7,5.1,0.7c3.1,0,5.5-0.8,7.3-2.4c1.8-1.6,2.7-3.7,2.7-6.5
	c0-3-0.9-5.4-2.7-7.3C21.6,128.5,19.2,127.6,16.1,127.6z M41.5,167.7c-2,0-3.7-0.7-5.1-2c-1.4-1.3-2.1-2.9-2.1-4.8
	c0-1.8,0.6-3.2,1.8-4.4c1.2-1.2,3.7-2.3,7.5-3.3c2.3-0.7,3.9-1.2,4.7-1.7v-1.9c0-1.8-0.5-3.3-1.5-4.4c-1-1.1-2.4-1.7-4.1-1.7
	c-1.6,0-2.9,0.5-4.2,1.5c-1.2,1-2.1,2.3-2.5,4l-1.3-0.3c0.5-2.3,1.6-4.2,3.3-5.7c1.7-1.4,3.7-2.1,6-2.1c2.7,0,4.9,0.8,6.6,2.5
	s2.5,3.9,2.5,6.8v10.9c0,1.5,0.1,2.6,0.3,3.1c0.2,0.5,0.6,0.8,1.1,0.8c0.4,0,0.7-0.2,0.9-0.5c0.2-0.3,0.5-1,0.8-2h1.2
	c-0.1,1.6-0.6,2.8-1.5,3.8c-0.9,0.9-2,1.4-3.4,1.4c-2.1,0-3.5-1.2-4.3-3.6c-1.3,1.4-2.4,2.3-3.3,2.8C44,167.5,42.8,167.7,41.5,167.7
	z M48.3,161.8v-8.6c-0.7,0.3-1.8,0.7-3.1,1.2c-2.5,0.9-4.2,1.7-4.9,2.6c-0.7,0.8-1.1,2-1.1,3.4c0,1.3,0.4,2.3,1.1,3.3
	c0.8,0.9,1.7,1.4,2.7,1.4c1,0,2-0.3,3-0.9S47.9,162.7,48.3,161.8z M68.8,140.9v5.5c2.3-2,4.1-3.4,5.4-4.3s2.4-1.2,3.2-1.2
	c1.6,0,3.2,0.7,4.6,2l-1.9,4.5c-2.7-1.5-4.7-2.2-6-2.2c-1.4,0-3.2,1-5.4,3.1v13.9c0,1.4,0.3,2.3,0.9,2.8c0.6,0.5,1.7,0.7,3.3,0.7
	v1.2H59.7v-1.2c1.8,0,2.9-0.3,3.5-0.8c0.5-0.6,0.8-1.9,0.8-4v-13.8c0-1.8-0.3-2.9-0.9-3.4c-0.6-0.5-2-0.8-4.3-0.8v-1.2l8.9-0.8H68.8
	z M93.7,140.9h1.2v21.3c0,1.4,0.3,2.3,0.9,2.8c0.6,0.5,1.7,0.7,3.3,0.7v1.2H85.3v-1.2c2,0,3.3-0.2,3.9-0.7c0.6-0.5,0.9-1.4,0.9-2.8
	v-15.6c0-1.5-0.3-2.6-0.8-3c-0.5-0.5-1.9-0.7-4-0.7v-1.2L93.7,140.9z M92.6,127.8c0.9,0,1.6,0.3,2.2,0.9c0.6,0.6,0.9,1.3,0.9,2.2
	c0,0.9-0.3,1.6-0.9,2.2c-0.6,0.6-1.3,0.9-2.2,0.9c-0.9,0-1.6-0.3-2.2-0.9c-0.6-0.6-0.9-1.4-0.9-2.2c0-0.9,0.3-1.6,0.9-2.2
	C91,128.1,91.7,127.8,92.6,127.8z M119.4,140.9v7.8H118c-0.2-2-0.9-3.5-2.1-4.7c-1.2-1.2-2.6-1.7-4.2-1.7c-1.3,0-2.3,0.3-3,0.9
	s-1.2,1.5-1.2,2.5c0,1,0.4,1.9,1.1,2.7c0.7,0.8,2.3,1.7,4.6,2.8c3.1,1.4,5.1,2.7,6.1,4c1,1.3,1.5,2.8,1.5,4.6c0,2.1-0.8,3.9-2.4,5.5
	s-3.5,2.3-5.6,2.3c-1.1,0-2.6-0.4-4.4-1.2c-1-0.4-1.7-0.7-2-0.7c-0.4,0-0.8,0.2-1.1,0.5c-0.3,0.3-0.5,0.7-0.5,1.2h-1.2v-8.6h1.2
	c0.4,2.3,1.4,4.1,2.9,5.4c1.5,1.3,3.2,2,5.2,2c1.3,0,2.3-0.4,3.2-1.3c0.8-0.8,1.3-1.9,1.3-3.1c0-1.2-0.4-2.2-1.2-3.1
	c-0.8-0.9-2.5-1.9-5.1-3c-2.9-1.3-4.9-2.5-5.8-3.6c-0.9-1.1-1.4-2.5-1.4-4c0-2,0.8-3.7,2.3-5.1s3.3-2.1,5.4-2.1c1,0,2,0.2,3.2,0.7
	c0.8,0.3,1.5,0.5,2,0.5c0.7,0,1.2-0.4,1.5-1.2H119.4z"></path>
</svg>
