<svg xml:space="preserve" style="enable-background:new 0 0 3444 514;" viewBox="0 0 3444 514" y="0px" x="0px" xmlns:xlink="http://www.w3.org/1999/xlink" xmlns="http://www.w3.org/2000/svg" id="Layer_1" version="1.1">
<g>
	<path d="M2314.1,2.9c-7-1-14-1.9-21.1-2.9c-14,0-28,0-42,0c-9.3,1.3-18.7,2.3-28,4c-71.8,13.1-129.4,48.8-169.6,110.1
		c-38.5,58.7-49.4,123.4-37.5,192.2C2034,410.7,2117.5,493,2222.1,510c9,1.5,17.9,2.7,26.9,4c15,0,30,0,45,0
		c1.1-0.3,2.1-0.7,3.3-0.9c13.1-2.1,26.5-3.2,39.4-6.3c77.4-18.6,134.9-63,169.5-135.2c25.8-53.9,31.2-110.7,20-169
		C2505.7,97.7,2424.5,18.5,2314.1,2.9z M2392.3,382.3c-29.3,31.7-66.1,48.1-109,50.8c-48.4,3-90.7-11.7-125.8-45.4
		c-25.6-24.5-41.7-54.7-48.9-89.3c-10.3-49.5-4.2-97,22.2-140.6c26.8-44.2,66.6-69.4,117.9-75.9c44.3-5.7,85.3,3.4,121.4,30.2
		c35.7,26.6,56.3,62.9,64.7,106.2c2.5,12.9,3.3,26,4.1,33.2C2438,304.6,2424.8,347.1,2392.3,382.3z"></path>
	<path d="M706.1,2.9C699,2,692,1,685,0c-14,0-28,0-42,0c-9.5,1.3-19.1,2.3-28.5,4.1C540.8,17.8,482.3,55,442.4,118.8
		c-37.3,59.6-46.8,124.7-33.5,193.4c19.8,101.5,103.8,182.1,206.1,197.9c8.6,1.3,17.3,2.6,25.9,3.9c15,0,30,0,45,0
		c0.9-0.3,1.8-0.7,2.8-0.8c10.2-1.4,20.6-2.2,30.6-4.3c70.4-14.2,126.4-50.3,164.7-111.4c36.8-58.8,46.7-123.1,34.9-190.9
		C900.3,98.8,814.3,16.8,706.1,2.9z M785.5,381.1c-29.8,32.8-67.4,49.6-111.5,52c-44,2.4-83.8-9.2-117.7-38
		c-31.5-26.8-49.6-61.4-56.9-101.6c-7.4-40.9-3.7-80.8,14.3-118.5c25.5-53.7,68-85.1,127.1-93c42.5-5.7,82.3,2.7,117.7,27.5
		c36.2,25.3,57.8,60.7,67.2,103.4c3.2,14.5,4.3,29.6,5.3,37.5C830.1,303.9,817.3,346.1,785.5,381.1z"></path>
	<path d="M3440,205c-11.7-61.8-41.9-112.1-93.7-148.5c-46.9-33-100.1-46.7-156.8-47.3c-62.3-0.7-124.7-0.2-187-0.2
		c-1.8,0-3.6,0-5.6,0c0,165.6,0,330.8,0,496.5c2.3,0,4.3,0,6.3,0c60.3,0,120.7,0.1,181,0c28.6-0.1,56.9-3.3,84.3-11.5
		c92.5-27.7,150.2-88.2,170.7-183c2.1-9.5,3.2-19.3,4.8-28.9c0-17.3,0-34.7,0-52C3442.7,221.7,3441.5,213.3,3440,205z M3342.4,319
		c-18.5,55.9-58,89.2-114.9,101.8c-14.8,3.3-30.3,4.5-45.5,4.9c-31.3,0.7-62.6,0.2-94,0.2c-1.8,0-3.6,0-5.8,0c0-112.7,0-224.6,0-337
		c1.9-0.1,3.6-0.3,5.4-0.3c32.8,0,65.6-0.3,98.5,0.1c32.2,0.4,62.7,7.6,90.5,24.4c33.5,20.3,55.6,49.8,66.9,87.1
		C3355.3,239.7,3355.4,279.6,3342.4,319z"></path>
	<path d="M423.8,9C282.3,9,141.1,9,0,9c0,26.7,0,53.3,0,80c1.5-0.2,2.9-0.5,4.4-0.5c54,0,108,0,162,0c1.4,0,2.8,0.2,4.7,0.4
		c0,138.9,0,277.5,0,416.1c28.7,0,56.9,0,85.7,0c0-139,0-277.6,0-416.6c56,0,111.5,0,167,0C423.8,61.7,423.8,35.5,423.8,9z"></path>
	<path d="M1200.5,327.4c-40.1-106.8-79.8-212.5-119.5-318.1c-41.2,0-82.1,0-123.1,0c0,165.5,0,330.7,0,495.9c28.5,0,56.6,0,85.4,0
		c0-117.7,0-235.1,0-352.6c5.2,11.2,9.5,22.6,13.7,33.9c39.1,104.5,78.1,209.1,117.1,313.6c1.5,4.1,3.4,5.5,7.9,5.4
		c12.2-0.4,24.3-0.4,36.5,0c4.6,0.1,6.6-1.3,8.3-5.6c36.1-94.5,72.3-188.9,108.5-283.3c8.3-21.6,16.6-43.1,24.8-64.7
		c0.4,0,0.7,0.1,1.1,0.1c0,117.6,0,235.2,0,353c28.7,0,57.1,0,85.5,0c0-165.5,0-330.6,0-495.9c-41.2,0-82.2,0-123.3,0
		C1282.4,115,1241.7,220.7,1200.5,327.4z"></path>
	<path d="M1635.4,505.1c28.5,0,56.9,0,85.7,0c0-63.6,0-126.9,0-190.7c87.8,0,175.2,0,262.8,0c0-26.7,0-52.8,0-79.8
		c-87.9,0-175.3,0-262.6,0c0-49,0-97.4,0-146.2c94.6,0,188.9,0,283.3,0c0-26.7,0-52.9,0-79.1c-123.2,0-246.1,0-369.3,0
		C1635.4,174.7,1635.4,339.7,1635.4,505.1z"></path>
	<path d="M2869.4,293.9c40.6-13.9,70.1-39.7,84.3-81c9.9-28.8,11.2-58.5,6.2-88.3c-7.2-42.5-29.8-74.2-68.4-93.9
		c-31-15.8-64.4-21.4-98.6-21.6C2719,8.7,2645.1,9,2571.3,9c-1.8,0-3.6,0-5.4,0c0,165.7,0,330.9,0,496.2c28.5,0,56.6,0,85.2,0
		c0-63.7,0-127.1,0-191.2c2.4,0,4.1,0,5.7,0c32.8,0,65.7,0.1,98.5-0.1c3.9,0,5.9,1.3,7.9,4.4c39.1,61,78.3,121.8,117.4,182.8
		c2.2,3.4,4.5,4.5,8.4,4.5c30.5-0.1,61-0.1,91.5-0.1c1.7,0,3.4,0,6.1,0c-44.9-69.4-89.1-137.9-133.6-206.6
		C2859,297.1,2864.2,295.7,2869.4,293.9z M2785.2,233.8c-39.3,1-78.6,0.8-117.9,1c-5.1,0-10.3,0-16.1,0c0-2.4,0-4.1,0-5.7
		c0-45,0.1-89.9-0.1-134.9c0-4.7,1.3-5.8,5.8-5.8c39.3,0.2,78.6,0,117.9,0.1c17,0.1,33.9,1.7,50.3,6.6c26.8,8,44.5,24.3,47.5,53.3
		c3.1,29.5-6.4,53.5-32.4,69.5C2823.4,228.3,2804.6,233.3,2785.2,233.8z"></path>
</g>
</svg>
